<?xml version="1.0" encoding="UTF-8"?>
<svg id="Layer_1" xmlns="http://www.w3.org/2000/svg" version="1.1" viewBox="0 0 938.3 1008">
  <!-- Generator: Adobe Illustrator 29.4.0, SVG Export Plug-In . SVG Version: 2.1.0 Build 152)  -->
  <defs>
    <style>
      .st0 {
        fill: #fff;
      }
    </style>
  </defs>
  <path class="st0" d="M452.29,92.88c212.64-7.57,359.18,221.07,258.73,410.73-100.45,189.64-372.68,201.67-486.94,18.89-114.26-182.78,13.59-421.98,228.21-429.62h0ZM451.49,124.59c-29.35,1.7-47.08,28.09-60.17,51.33-13.86,24.59-23.43,51.27-31.84,78.16l92.02-.49V124.59h0ZM482.49,128.59v123.5c.88,1.43,1.99,1.38,3.45,1.55,12.04,1.41,25.06-.93,37.01-1.09,14.84-.2,29.76.66,44.56-.47-5.53-17.94-11.23-36-18.84-53.16-13.19-29.74-32.79-61.44-66.18-70.32h0ZM243.49,254.59h84c9.24-39.14,24.44-77.61,45.99-111.5-5.28-.94-12.53,3-17.67,5.33-37.33,16.92-71.05,48.15-95.14,80.86-6.05,8.22-11.35,16.97-17.18,25.32h0ZM677.49,250.58c.73-.68-6.22-10.89-7.18-12.31-28.16-41.68-68.43-75.04-114.81-94.68-.74.77,9.98,16.21,11.16,18.33,15.5,27.76,26.99,58.8,34.92,89.57l75.9-.91h.01ZM693.38,285.71l-84.88-.12c4.38,28.94,8.55,58.07,8,87.5l.94,2.06,92.07-.56c-.1-30.57-5.85-60.25-16.12-88.88h-.01ZM483.49,469.59h63v31h-62.5l-.49,120c35.24-4.23,69.37-14.66,100.01-32.48v-172.51h-74.01v-40h74c-.91-29.49-3.37-58.91-8.01-87.99l-93,.99,1.01,181h0ZM451.49,288.59l-99.99,1.01c-4.27,24.45-7.34,49.12-8.01,73.99h108v-75ZM319.49,289.59h-89c-8.85,22.99-13.63,47.16-15.81,71.74l1.31,2.26h95l8.5-74ZM321.49,470.59c-4.8-19.08-7.61-38.85-8.99-58.51-.42-5.94,1.46-13.63-1.51-18.49h-95.5c2.64,26.5,8.58,53.14,20.5,77h85.5ZM451.49,393.59h-107c-.8,26.01,3.82,51.68,9,77h98v-77ZM705.49,415.59h-88v149c2.74-.82,5.78-3.63,8.01-5.49,41.88-34.82,72.7-89.39,79.99-143.51ZM451.49,500.59l-89.01,1.51c8.26,23.74,18.04,47.51,30.84,69.16,12.56,21.26,31.18,46.4,58.17,47.33v-118h0ZM328.99,501.59h-78.5c29.2,46.64,71.74,86.14,124.99,103l-20.17-36.32c-5.81-13.83-12.28-27.38-17.57-41.43-3.13-8.3-5.34-17.25-8.75-25.25h0Z"/>
  <path class="st0" d="M736.07,571.16c-16.34,16.67-40.98,36.71-61.28,48.22-.88.5-2.53,2.18-3.29.71,57.53-45.19,98.86-112.84,111.72-185.28,21.33-120.2-18.99-241.56-115.83-316.62C514.69-.16,295.45,32.95,189.08,194.67c-93.07,141.49-65.27,344.15,67.41,450.42-.79,1.49-2.4-.23-3.28-.72-45.06-24.87-89.09-72.02-114.51-116.49-63.2-110.6-45.31-267.83,28.38-369.21C292.81-14.31,538.03-42.92,700.51,97.07c136.47,117.58,166.41,340.62,35.57,474.09h-.01Z"/>
  <path class="st0" d="M579.99,728.59c36.58,3.1,56.75,33.68,35.01,66.01l-14.5,10.98c33.09,7.78,36.79,53.09,11.32,71.84-5.79,4.26-19.79,10.17-26.83,10.17h-83.5v-159h78.5ZM534.49,757.59v30.5c0,1.84-.05,4.53,1.5,5.5h35c.59,0,6.74-1.78,7.8-2.2,12.85-5.13,14.79-23.02,3.04-30.64-.88-.57-6.4-3.16-6.84-3.16h-40.5,0ZM534.49,820.59v38.5l1.5,1.5h39c2.06,0,8.82-2.85,10.83-4.17,11.17-7.32,13.54-24.66,1.36-32.03-1.97-1.19-8.26-3.81-10.19-3.81h-42.5Z"/>
  <path class="st0" d="M377.29,725.89c57.76-5.11,101.29,37.82,93.08,96.08-6.75,47.92-47.27,71.85-93.42,68.66-97.22-6.72-98.52-155.99.34-164.74h0ZM380.27,755.86c-64.24,7.79-51.18,121.03,19.07,105.07,58.92-13.39,47.08-113.09-19.07-105.07Z"/>
  <path class="st0" d="M152.49,868.09c-23.38,23.15-65.04,28.12-95.25,17.25-56.16-20.21-65.93-100.49-23.28-138.77,27.25-24.46,74.38-26.41,105.55-8.49,2.08,1.2,10.06,5.65,9.85,7.84l-16,23.54c-1.25.72-14.36-7.4-17.61-8.62-9.32-3.52-19.78-5.13-29.74-4.22-62.17,5.67-59.74,111.75,12.97,104.97,4.1-.38,22.52-4.61,22.52-9.48v-22l-1.5-1.5h-28.5v-28h61v67.5-.02Z"/>
  <path class="st0" d="M650.49,887.59l58.5-158,36.04-1.07,59.46,159.07h-34l-11.11-31.88-64,.47-11.39,31.41h-33.5ZM748.49,829.59l-21.01-66-22.6,63.93,1.11,2.07h42.5Z"/>
  <path class="st0" d="M225.49,728.59v131h64c-1.95,8.78,1.14,18.7,0,28h-98l1.5-159h32.5Z"/>
  <path class="st0" d="M864.49,728.59v131h65v28h-98c-.27-.73,1-1.2,1-1.5v-155c0-.35-1.77-1.11.5-2.5h31.5Z"/>
  <path class="st0" d="M103.49,941.59v57h-12v-35c-4.23,3.11-12.95,24.01-15.99,25.51-1.59.78-3.43.81-5.02,0l-14.99-25.51v35h-12v-55.5c1.55-2.2,10.28-2.08,12.01-1.02,2.7,1.66,15.73,30.49,17.49,30.5l16.99-29.99,13.51-.99Z"/>
  <polygon class="st0" points="304.49 976.59 304.49 941.59 315.49 941.59 315.49 998.59 304.92 997.66 280.49 964.59 280.49 998.59 269.49 998.59 269.49 941.59 280.06 942.52 304.49 976.59"/>
  <path class="st0" d="M380.49,993.09c-15.61,11.25-41.9,9.08-49.19-10.81-8.94-24.4,10.84-47.73,36.4-40.4,2.43.7,14.75,6.92,12.78,9.7l-9.35,5.86c-17.85-16.42-38.79,5.65-26.48,24.5,6.75,10.34,28.9,11.08,23.93-4.87l-10.1-.46c.37-3.29-1.23-7.63,1.51-10.01h20.5v26.5h0Z"/>
  <path class="st0" d="M224.49,993.59c-23.71,15.16-54.58,2.15-50.89-28.39,2.97-24.62,36.02-33.61,50.69-14.1-8.23,9.93-7.99,5.22-16.01,2.2-14.68-5.52-25.41,6.83-22.35,21.35,2.77,13.14,15.57,17.33,27.09,11.98l.47-10.04h-10.01v-9.99h21v27h0Z"/>
  <path class="st0" d="M481.49,979.59v19h-12v-57h24.5c2.76,0,10.27,3.47,12.53,5.47,8.25,7.27,6.32,23.53-2.69,29.37-.88.57-6.4,3.16-6.84,3.16h-15.5ZM481.49,969.59c23.92,3.91,24.96-21.43,0-17v17Z"/>
  <polygon class="st0" points="562.49 941.59 562.49 952.59 536.49 952.59 536.49 964.59 558.49 964.59 558.49 974.59 536.49 974.59 536.49 988.59 562.49 988.59 562.49 998.59 525.49 998.59 525.49 941.59 562.49 941.59"/>
  <path class="st0" d="M710.49,998.58l-11.86-.13-4.76-11.74c-4.33.49-17.93-1.8-20.29,1.46-1.58,2.18-2.37,7.56-3.18,10.31l-12.9.09,20.96-56.53,12.56.53,19.48,56.01h-.01ZM691.49,977.59c-1.94-5.71-3.51-13.2-5.96-18.54-.46-.99-.61-2.35-2.03-2.46l-6.01,21h14Z"/>
  <path class="st0" d="M166.49,998.58l-12.04-.45-3.44-10.56c-1.11-1.33-17.73-1.54-19.85-.82-2.89.98-3.16,9.04-4.8,11.7l-11.85.13,19.95-56.54,12.56.53,19.48,56.01h0ZM147.49,977.59c-1.44-5.76-3.53-13.21-5.96-18.54-.45-.99-.61-2.35-2.03-2.46l-6.01,21h14Z"/>
  <path class="st0" d="M596.27,940.86c7.68-.94,16.78.44,22.69,5.75,6.96,6.26,1.46,7.51-4.16,11.84-7.12-5.32-11.87-8.88-21.01-5.07-15.8,6.6-12,38.83,11.14,35.13,3.67-.59,8.49-5.21,11.01-4.99,13.58,6.56.72,14.5-8.21,15.79-44.56,6.45-46.84-54.13-11.46-58.46h0Z"/>
  <path class="st0" d="M828.36,956.43h-2.18c-3.48-4.71-18.83-7.96-19.47-.2-.59,7.16,15.73,9.53,21.14,13.49,6.14,4.5,7.02,13.46,4.38,20.09-5.64,14.18-31.36,12.15-39.63,1.12l6.38-8.11c5.46,3.63,12.68,9.27,19.43,5.16,2.56-1.56,3.79-3.72,2.91-6.69-1.99-6.72-23.76-6.41-25.73-20.31-3.23-22.79,24.43-25.69,37.76-12.94l-4.99,8.38h0Z"/>
  <path class="st0" d="M456.49,947.61l-6.51,9.97c-2.22-5.87-19.41-9.31-20.53-1.44.04,8.07,10.86,8.03,16.74,11.24,14.47,7.9,12.87,27.73-2.89,31.52-10.88,2.62-20.06-.31-28.37-7.3l6.09-9.02c1.43-.35,12.63,11.34,20.83,4.86,9.69-7.66-7.86-11.59-12.04-13.68-10.31-5.13-16.78-15.83-8.84-26.2,8.65-11.31,25.71-7.38,35.52.05h0Z"/>
  <path class="st0" d="M926.37,956.47c-2.25,1.32-12.94-9.38-19.97-3.47-9.43,7.94,12.64,12.78,16.78,15.39,12.34,7.81,9.09,27.77-5.64,30.75-10.49,2.12-18.57-.62-26.92-6.69-1.26-2.19,4.68-8.08,6.36-9.84,4.5,4.43,13.25,9.14,19.02,4.99,11.37-8.19-9.41-12.72-13.84-15.19-8.45-4.71-11.74-12.64-8.16-21.81,5.3-13.61,27.82-12.65,36.35-2.38l-3.98,8.25h0Z"/>
  <path class="st0" d="M883.49,941.59v11h-16v43.5c0,.31,1.38,1.41,1,2.49h-12v-45.99h-15v-11h42Z"/>
  <path class="st0" d="M733.49,941.59v47h19.5c.31,0,1.41-1.38,2.49-1v11h-33.99v-57h12Z"/>
  <rect class="st0" x="769.49" y="941.59" width="12" height="57"/>
  <rect class="st0" x="240.49" y="941.59" width="12" height="57"/>
  <rect class="st0" x="635.49" y="941.59" width="11" height="57"/>
  <rect class="st0" x="16.49" y="941.59" width="11" height="57"/>
</svg>